<?xml version="1.0" encoding="utf-8"?>
<!-- Generator: Adobe Illustrator 18.1.1, SVG Export Plug-In . SVG Version: 6.00 Build 0)  -->
<svg version="1.1" id="Layer_1" xmlns="http://www.w3.org/2000/svg" xmlns:xlink="http://www.w3.org/1999/xlink" x="0px" y="0px"
	 viewBox="0 0 663 538" enable-background="new 0 0 663 538" xml:space="preserve">
<g>
	<title  fill="#e06da7">Layer 1</title>
	<path id="svg_1" fill="#E06DA7" d="M0,472c0,0,78.1,9.6,141-20c37.2-17.5,57.6-35.7,57.6-35.7s-37.9-0.1-67.6-21.3
		c-42.1-29.9-60-70-60-70l62-4c0,0-41.5-14.7-70-43c-35-34.7-32.2-88-32.2-88l54,15c0,0-25.8-16-43.7-49.9
		C10.6,97.4,43.4,26.7,46.7,26.7c0,0,54.7,57.7,122.3,95.4c77.4,43.2,153,44,153,44s-17.3-99.3,55-143.9
		c97.2-59.9,177.7,21.1,177.7,21.1s19.5-2.4,45.3-13.1c14.8-6.2,28.8-13.9,42-23c0,0-3.3,21.2-25,46c-15,17.1-30.9,32-30.9,32
		l76.9-22l-66,73c0,0,3.9,262.5-250,374.3C165.2,590.4,0,471.1,0,472L0,472z"/>
</g>
</svg>
